<svg width="80" height="80" viewBox="0 0 80 80" fill="none" xmlns="http://www.w3.org/2000/svg">
<path d="M74.9 62.7333L71.5667 49.8667L61.0667 11.2333C60.8398 10.3811 60.2844 9.65358 59.5222 9.21C58.76 8.76642 57.853 8.64296 57 8.86667L44.1 12.2C43.7921 11.8588 43.4171 11.585 42.9983 11.3957C42.5795 11.2064 42.1262 11.1057 41.6667 11.1H8.33333C7.44928 11.1 6.60143 11.4512 5.97631 12.0763C5.35119 12.7014 5 13.5493 5 14.4333V67.7667C5 68.6507 5.35119 69.4986 5.97631 70.1237C6.60143 70.7488 7.44928 71.1 8.33333 71.1H41.6667C42.5507 71.1 43.3986 70.7488 44.0237 70.1237C44.6488 69.4986 45 68.6507 45 67.7667V41.1L52.3333 68.5C52.5287 69.2272 52.9645 69.8668 53.5697 70.3148C54.175 70.7627 54.9141 70.9924 55.6667 70.9667C55.9546 70.9994 56.2454 70.9994 56.5333 70.9667L72.6333 66.6667C73.059 66.5529 73.4578 66.3558 73.8069 66.0869C74.1559 65.818 74.4481 65.4826 74.6667 65.1C75.0183 64.3625 75.1008 63.5253 74.9 62.7333ZM21.5667 64.5667H11.5667V57.9H21.5667V64.5667ZM21.5667 51.2333H11.5667V31.2333H21.5667V51.2333ZM21.5667 24.5667H11.5667V17.9H21.5667V24.5667ZM38.2333 64.5667H28.2333V57.9H38.2333V64.5667ZM38.2333 51.2333H28.2333V31.2333H38.2333V51.2333ZM38.2333 24.5667H28.2333V17.9H38.2333V24.5667ZM45.7333 18.7667L55.4 16.1667L57.1333 22.6L47.4667 25.2L45.7333 18.7667ZM54.3667 50.9667L49.2 31.6333L58.8667 29.0333L64.0333 48.3667L54.3667 50.9667ZM57.7 63.8333L55.9667 57.4L65.6333 54.8L67.3667 61.2333L57.7 63.8333Z" fill="black"/>
</svg>
